# xmcd
#
# Track frame offsets:
#	150
#	10012
#	18319
#	27968
#	38935
#	49661
#	61087
#	73426
#	81851
#	91394
#	101887
#	111376
#	119178
#	131722
#	142124
#	150397
#	159850
#	171389
#	181879
#	192940
#	202913
#	213654
#	224340
#	233635
#
# Disc length: 3242 seconds
#
# Revision: 1
# Processed by: cddbd v1.5.2PL0 Copyright (c) Steve Scherf et al.
# Submitted via: audiograbber 1.83.01
#
DISCID=5c0ca818
DTITLE=Hillbilly Bop-Boogie and The Honky Tonk Blues - Hillbilly Bop-Boogie and The
DTITLE=Honky Tonk Blues  Vol..6 CD2
DYEAR=196
DGENRE=CO-HiBi
TTITLE0=Davis Artie - Hawaiian Boogie
TTITLE1=Marvin Ken - Uh uh Honey
TTITLE2=Les and his Western Playboys - I don't Care Anymore
TTITLE3=Country Boys The - Your Turn to Cry
TTITLE4=Welch Jimmy - Searight Blues
TTITLE5=Keefer Lyle - Hand full of Love
TTITLE6=Perry Bob - Juke Box
TTITLE7=Zack Jimmy and The Blues Rockers - Evil Ways
TTITLE8=Russ Bill - The Thing for me to do
TTITLE9=Collins Marty with the Westerners - Sitting Thinkin' and Drinking
TTITLE10=PAUL Marvin - Gamblin' Man
TTITLE11=Country Boy Eddie with the Country Boys and The Nuggets - The Fodder Fos
TTITLE11=sil Blues
TTITLE12=Hiser David - Dodge City Kitty
TTITLE13=Barnett Hoss and the Roll with Hoss Combo - I want my Case Continued
TTITLE14=Tidwell Bobby and Kiamichi mt Boys - Cherokee Stomp
TTITLE15=Parsley Al - Country Courting
TTITLE16=Scarbrough Gene - The Bluest in Town
TTITLE17=Parson Jimmie and The Melody Boys - Nobody Cares
TTITLE18=Jacoby Brothers (Boy and Gene) - Alone Tinight
TTITLE19=Swaney Doug - Fool about my Baby
TTITLE20=Miller Darnell with the Swing Kings - Royal Flush
TTITLE21=Stewart Charlie and The Gem Tones - HeyCastro
TTITLE22=Blanc Red le - I Love her right or Wrong
TTITLE23=Lanham Bill - T for Texas
EXTD=
EXTT0=
EXTT1=
EXTT2=
EXTT3=
EXTT4=
EXTT5=
EXTT6=
EXTT7=
EXTT8=
EXTT9=
EXTT10=
EXTT11=
EXTT12=
EXTT13=
EXTT14=
EXTT15=
EXTT16=
EXTT17=
EXTT18=
EXTT19=
EXTT20=
EXTT21=
EXTT22=
EXTT23=
PLAYORDER=
